<svg width="24" height="24" viewBox="0 0 24 24" fill="none" xmlns="http://www.w3.org/2000/svg">
<path fill-rule="evenodd" clip-rule="evenodd" d="M14.4 1.59998H9.6V4.79998H3.2V7.99998H0V13.6C0 15.9339 0.92714 18.1722 2.57746 19.8225C4.22778 21.4728 6.4661 22.4 8.8 22.4H9.6448C11.8585 22.3993 14.0315 21.8052 15.9377 20.6796C17.8439 19.554 19.4135 17.9381 20.4832 16H24V13.6C24 12.9635 23.7471 12.353 23.2971 11.9029C22.847 11.4528 22.2365 11.2 21.6 11.2H20.8V10.4C20.8 9.76346 20.5471 9.15301 20.0971 8.70292C19.647 8.25283 19.0365 7.99998 18.4 7.99998H14.4V1.59998ZM1.6 11.2H3.2V9.59998H1.6V11.2ZM4.8 11.2H6.4V9.59998H4.8V11.2ZM8 11.2H9.6V9.59998H8V11.2ZM11.2 11.2H12.8V9.59998H11.2V11.2ZM14.4 11.2H16V9.59998H14.4V11.2ZM12.8 4.79998V3.19998H11.2V4.79998H12.8ZM9.6 6.39998H8V7.99998H9.6V6.39998ZM11.2 7.99998V6.39998H12.8V7.99998H11.2ZM6.4 7.99998V6.39998H4.8V7.99998H6.4ZM4.8 16H6.4V14.4H4.8V16Z" fill="#303434"/>
</svg>
