<svg width="24" height="24" viewBox="0 0 24 24" fill="none" xmlns="http://www.w3.org/2000/svg">
<path d="M9.75 2.25H2.25C1.422 2.25 0.75 2.92275 0.75 3.75V8.25C0.75 8.64782 0.908036 9.02936 1.18934 9.31066C1.47064 9.59196 1.85218 9.75 2.25 9.75H4.06725L5.3655 12L6.66525 11.25L4.93275 8.25H2.25V3.75H9.75V8.25H7.5V9.75H9.75C10.5773 9.75 11.25 9.078 11.25 8.25V3.75C11.25 2.92275 10.5773 2.25 9.75 2.25ZM12.75 22.5H14.25V18.75C14.2506 18.1534 14.4878 17.5815 14.9097 17.1597C15.3315 16.7378 15.9034 16.5006 16.5 16.5H19.5C20.0966 16.5006 20.6685 16.7378 21.0903 17.1597C21.5122 17.5815 21.7494 18.1534 21.75 18.75V22.5H23.25V18.75C23.2488 17.7558 22.8533 16.8027 22.1503 16.0997C21.4473 15.3967 20.4942 15.0012 19.5 15H16.5C15.5058 15.0012 14.5527 15.3967 13.8497 16.0997C13.1467 16.8027 12.7512 17.7558 12.75 18.75V22.5ZM18 7.5C17.4033 7.5 16.831 7.73705 16.409 8.15901C15.9871 8.58097 15.75 9.15326 15.75 9.75C15.75 10.3467 15.9871 10.919 16.409 11.341C16.831 11.7629 17.4033 12 18 12C18.5967 12 19.169 11.7629 19.591 11.341C20.0129 10.919 20.25 10.3467 20.25 9.75C20.25 9.15326 20.0129 8.58097 19.591 8.15901C19.169 7.73705 18.5967 7.5 18 7.5ZM18 6C18.9946 6 19.9484 6.39509 20.6517 7.09835C21.3549 7.80161 21.75 8.75544 21.75 9.75C21.75 10.7446 21.3549 11.6984 20.6517 12.4017C19.9484 13.1049 18.9946 13.5 18 13.5C17.0054 13.5 16.0516 13.1049 15.3483 12.4017C14.6451 11.6984 14.25 10.7446 14.25 9.75C14.25 8.75544 14.6451 7.80161 15.3483 7.09835C16.0516 6.39509 17.0054 6 18 6Z" fill="#710FD8"/>
</svg>
