<svg width="24" height="24" viewBox="0 0 24 24" fill="none" xmlns="http://www.w3.org/2000/svg">
<path d="M22.149 9.81224L22.1213 9.73349L19.263 1.99199C19.207 1.84112 19.1039 1.71228 18.969 1.62449C18.8857 1.56926 18.7921 1.53151 18.6937 1.51353C18.5954 1.49554 18.4945 1.49769 18.397 1.51985C18.2996 1.542 18.2076 1.5837 18.1267 1.64243C18.0459 1.70115 17.9777 1.77568 17.9265 1.86149C17.8854 1.92639 17.8546 1.99722 17.835 2.07149L15.906 7.49999H8.094L6.165 2.07149C6.14041 1.97389 6.09649 1.8822 6.03586 1.80186C5.97522 1.72152 5.89909 1.65415 5.81197 1.60374C5.72485 1.55333 5.6285 1.52089 5.52863 1.50836C5.42876 1.49582 5.32738 1.50343 5.2305 1.53074C5.15979 1.55176 5.09257 1.5831 5.031 1.62374C4.89599 1.71172 4.7929 1.84084 4.737 1.99199L1.88025 9.73499L1.85025 9.81224C1.43681 10.9241 1.38444 12.1379 1.70059 13.2812C2.01675 14.4245 2.68533 15.439 3.61125 16.1805L3.6225 16.1895L3.6465 16.209L7.99425 19.5922L10.1513 21.285L11.4615 22.314C11.6134 22.4345 11.8016 22.5 11.9955 22.5C12.1894 22.5 12.3776 22.4345 12.5295 22.314L13.8398 21.285L15.9968 19.5922L20.3753 16.1895L20.3873 16.1797C21.3133 15.4385 21.9821 14.4242 22.2985 13.2811C22.6149 12.1379 22.5629 10.9241 22.1498 9.81224H22.149Z" fill="#E53935"/>
<path d="M22.149 9.81227L22.1213 9.73352C20.721 10.0332 19.4072 10.6471 18.279 11.529L12.0038 16.4565L15.999 19.5923L20.3783 16.1895L20.3903 16.1798C21.3157 15.4381 21.9837 14.4236 22.2994 13.2805C22.6152 12.1373 22.5626 10.9238 22.149 9.81227Z" fill="#EF6C00"/>
<path d="M7.99426 19.5923L10.1513 21.285L11.4615 22.314C11.6134 22.4345 11.8016 22.5 11.9955 22.5C12.1894 22.5 12.3776 22.4345 12.5295 22.314L13.8398 21.285L15.9968 19.5923L12 16.4573L7.99426 19.5923Z" fill="#F9A825"/>
<path d="M5.72104 11.5283C4.59324 10.6478 3.28023 10.0349 1.88104 9.73578L1.85104 9.81228C1.43751 10.924 1.38502 12.1378 1.70104 13.2811C2.01706 14.4244 2.68549 15.439 3.61129 16.1805L3.62254 16.1895L3.64654 16.209L7.99429 19.5923L11.9925 16.4573L5.72104 11.5283Z" fill="#EF6C00"/>
</svg>
