<svg width="24" height="24" viewBox="0 0 24 24" fill="none" xmlns="http://www.w3.org/2000/svg">
<path d="M16.5908 7.40926C16.1689 6.98745 15.5967 6.75049 15.0001 6.75049C14.4034 6.75049 13.8312 6.98745 13.4093 7.40926L13.0606 7.75726L14.1211 8.81776L14.4698 8.46976C14.6113 8.33314 14.8007 8.25754 14.9974 8.25925C15.194 8.26096 15.3821 8.33984 15.5212 8.47889C15.6602 8.61795 15.7391 8.80606 15.7408 9.00271C15.7425 9.19935 15.6669 9.38881 15.5303 9.53026L13.0606 12L14.1211 13.0605L16.5908 10.5908C17.0126 10.1688 17.2496 9.59663 17.2496 9.00001C17.2496 8.40339 17.0126 7.83119 16.5908 7.40926ZM9.53031 15.5303C9.38886 15.6669 9.19941 15.7425 9.00276 15.7408C8.80611 15.7391 8.618 15.6602 8.47895 15.5211C8.33989 15.3821 8.26101 15.194 8.25931 14.9973C8.2576 14.8007 8.33319 14.6112 8.46981 14.4698L10.9396 12L9.87906 10.9395L7.40931 13.4093C7.19441 13.6168 7.023 13.8651 6.90508 14.1396C6.78716 14.4141 6.72509 14.7094 6.7225 15.0081C6.7199 15.3069 6.77683 15.6031 6.88996 15.8797C7.00309 16.1562 7.17016 16.4074 7.38142 16.6186C7.59268 16.8299 7.8439 16.997 8.12041 17.1101C8.39693 17.2232 8.69321 17.2802 8.99196 17.2776C9.29072 17.275 9.58596 17.2129 9.86047 17.095C10.135 16.9771 10.3833 16.8057 10.5908 16.5908L10.9396 16.2428L9.87906 15.1823L9.53031 15.5303ZM10.5908 7.41001C10.1647 7.01008 9.59978 6.79161 9.01549 6.80083C8.4312 6.81004 7.87342 7.04621 7.46016 7.45937C7.04691 7.87253 6.8106 8.43026 6.80125 9.01455C6.7919 9.59883 7.01024 10.1638 7.41006 10.59L7.75806 10.9388L8.81856 9.87826L8.47056 9.52951C8.33394 9.38806 8.25835 9.1986 8.26006 9.00196C8.26176 8.80531 8.34064 8.6172 8.4797 8.47814C8.61875 8.33909 8.80686 8.26021 9.00351 8.2585C9.20016 8.25679 9.38961 8.33239 9.53106 8.46901L12.0001 10.9395L13.0606 9.87901L10.5908 7.41001Z" fill="#710FD8"/>
<path d="M16.5907 13.4092L16.2427 13.0605L15.1822 14.121L15.5302 14.4697C15.6668 14.6112 15.7424 14.8006 15.7407 14.9973C15.739 15.1939 15.6601 15.382 15.5211 15.5211C15.382 15.6602 15.1939 15.739 14.9973 15.7407C14.8006 15.7425 14.6112 15.6669 14.4697 15.5302L12 13.0605L10.9395 14.121L13.4092 16.5907C13.8336 17.0006 14.4019 17.2274 14.9919 17.2223C15.5818 17.2171 16.1461 16.9805 16.5633 16.5633C16.9805 16.1462 17.2171 15.5818 17.2222 14.9919C17.2273 14.4019 17.0006 13.8336 16.5907 13.4092Z" fill="#710FD8"/>
<path d="M12 23.25C11.8672 23.25 11.7367 23.2148 11.622 23.148L2.622 17.898C2.50877 17.8319 2.41483 17.7373 2.34956 17.6236C2.28429 17.5099 2.24996 17.3811 2.25 17.25V6.74998C2.24996 6.61888 2.28429 6.49005 2.34956 6.37636C2.41483 6.26266 2.50877 6.16805 2.622 6.10198L11.622 0.851978C11.7367 0.785032 11.8672 0.749756 12 0.749756C12.1328 0.749756 12.2633 0.785032 12.378 0.851978L21.378 6.10198L20.622 7.39798L12 2.36848L3.75 7.18048V16.8195L12 21.6322L20.25 16.8195V11.25H21.75V17.25C21.75 17.3811 21.7157 17.5099 21.6504 17.6236C21.5852 17.7373 21.4912 17.8319 21.378 17.898L12.378 23.148C12.2633 23.2148 12.1328 23.25 12 23.25Z" fill="#710FD8"/>
</svg>
