<svg width="360" height="64" viewBox="0 0 360 64" fill="none" xmlns="http://www.w3.org/2000/svg">
<path d="M28.7961 19.044H0C0 10.183 7.18305 3 16.044 3H28.7961V19.044Z" fill="#710FD8"/>
<path d="M57.5832 19.044H33.0938C33.0938 10.183 40.2768 3 49.1377 3H57.5912V19.044H57.5832Z" fill="#25D838"/>
<path d="M41.5472 39.7779H33.0938V23.7339H57.5832C57.5832 32.5948 50.4002 39.7779 41.5472 39.7779Z" fill="#25D838"/>
<path d="M41.5492 60.504H20.4795V44.46H57.5852C57.5852 53.3289 50.4022 60.504 41.5492 60.504Z" fill="#710FD8"/>
<path d="M28.7961 23.7339H0V35.0398V39.7699V45.2271C0 53.6646 6.83947 60.504 15.277 60.504H16.044V39.7699H28.7961V23.7339V23.7339Z" fill="#710FD8"/>
<path d="M74.2124 29V3.54545H91.0661V7.9826H79.5941V14.0479H89.9474V18.4851H79.5941V29H74.2124ZM94.386 29V3.54545H99.7677V24.5629H110.68V29H94.386ZM113.944 29V3.54545H131.096V7.9826H119.326V14.0479H130.214V18.4851H119.326V24.5629H131.146V29H113.944ZM140.121 3.54545L145.254 12.2209H145.453L150.611 3.54545H156.689L148.921 16.2727L156.863 29H150.673L145.453 20.3121H145.254L140.034 29H133.869L141.836 16.2727L134.019 3.54545H140.121ZM159.795 29V3.54545H169.986C171.859 3.54545 173.421 3.82303 174.672 4.3782C175.923 4.93336 176.864 5.70395 177.493 6.68999C178.123 7.66773 178.438 8.79463 178.438 10.0707C178.438 11.065 178.239 11.9392 177.841 12.6932C177.444 13.4389 176.897 14.0521 176.201 14.5327C175.513 15.005 174.726 15.3406 173.839 15.5394V15.788C174.809 15.8294 175.716 16.1029 176.561 16.6083C177.415 17.1138 178.107 17.8222 178.637 18.7337C179.167 19.6368 179.432 20.714 179.432 21.9652C179.432 23.3158 179.097 24.5214 178.426 25.582C177.763 26.6344 176.781 27.4671 175.48 28.0803C174.179 28.6934 172.576 29 170.67 29H159.795ZM165.176 24.6001H169.564C171.064 24.6001 172.157 24.3143 172.845 23.7425C173.533 23.1625 173.877 22.3919 173.877 21.4308C173.877 20.7264 173.707 20.105 173.367 19.5664C173.027 19.0278 172.543 18.6052 171.913 18.2987C171.291 17.9921 170.55 17.8388 169.688 17.8388H165.176V24.6001ZM165.176 14.1971H169.166C169.903 14.1971 170.558 14.0687 171.13 13.8118C171.71 13.5466 172.166 13.1738 172.497 12.6932C172.837 12.2126 173.007 11.6367 173.007 10.9656C173.007 10.0458 172.679 9.30421 172.025 8.74077C171.378 8.17732 170.459 7.8956 169.265 7.8956H165.176V14.1971ZM182.634 29V3.54545H199.786V7.9826H188.016V14.0479H198.904V18.4851H188.016V24.5629H199.836V29H182.634ZM203.765 29V3.54545H213.808C215.73 3.54545 217.37 3.88932 218.729 4.57706C220.097 5.25651 221.136 6.22183 221.849 7.47301C222.57 8.71591 222.93 10.1784 222.93 11.8604C222.93 13.5508 222.566 15.005 221.837 16.223C221.107 17.4328 220.051 18.3608 218.667 19.0071C217.292 19.6534 215.626 19.9766 213.671 19.9766H206.947V15.6513H212.801C213.828 15.6513 214.682 15.5104 215.361 15.2287C216.041 14.947 216.546 14.5244 216.877 13.9609C217.217 13.3975 217.387 12.6973 217.387 11.8604C217.387 11.0153 217.217 10.3027 216.877 9.72266C216.546 9.14264 216.036 8.70348 215.349 8.40518C214.669 8.0986 213.812 7.94531 212.776 7.94531H209.147V29H203.765ZM217.511 17.4162L223.838 29H217.897L211.707 17.4162H217.511ZM226.434 29V3.54545H236.476C238.399 3.54545 240.039 3.88932 241.398 4.57706C242.765 5.25651 243.805 6.22183 244.518 7.47301C245.239 8.71591 245.599 10.1784 245.599 11.8604C245.599 13.5508 245.235 15.005 244.505 16.223C243.776 17.4328 242.72 18.3608 241.336 19.0071C239.961 19.6534 238.295 19.9766 236.34 19.9766H229.615V15.6513H235.47C236.497 15.6513 237.35 15.5104 238.03 15.2287C238.709 14.947 239.215 14.5244 239.546 13.9609C239.886 13.3975 240.056 12.6973 240.056 11.8604C240.056 11.0153 239.886 10.3027 239.546 9.72266C239.215 9.14264 238.705 8.70348 238.017 8.40518C237.338 8.0986 236.48 7.94531 235.445 7.94531H231.815V29H226.434ZM240.18 17.4162L246.506 29H240.565L234.376 17.4162H240.18ZM246.551 3.54545H252.579L258.384 14.5078H258.632L264.437 3.54545H270.465L261.18 20.0014V29H255.836V20.0014L246.551 3.54545ZM96.6715 44.457H91.2276C91.1282 43.7527 90.9252 43.1271 90.6186 42.5803C90.312 42.0251 89.9184 41.5528 89.4379 41.1634C88.9573 40.7739 88.4021 40.4756 87.7724 40.2685C87.1509 40.0613 86.4756 39.9577 85.7464 39.9577C84.429 39.9577 83.2814 40.285 82.3036 40.9396C81.3259 41.5859 80.5677 42.5305 80.0291 43.7734C79.4905 45.008 79.2212 46.5078 79.2212 48.2727C79.2212 50.0874 79.4905 51.612 80.0291 52.8466C80.576 54.0812 81.3383 55.0134 82.3161 55.6431C83.2938 56.2728 84.4248 56.5877 85.7092 56.5877C86.43 56.5877 87.0971 56.4924 87.7102 56.3018C88.3317 56.1113 88.8827 55.8337 89.3633 55.4691C89.8439 55.0962 90.2416 54.6446 90.5565 54.1143C90.8796 53.584 91.1033 52.9792 91.2276 52.2997L96.6715 52.3246C96.5307 53.4929 96.1785 54.6198 95.6151 55.7053C95.0599 56.7824 94.31 57.7478 93.3654 58.6012C92.4291 59.4464 91.3105 60.1175 90.0096 60.6147C88.717 61.1036 87.2545 61.348 85.6222 61.348C83.3518 61.348 81.3217 60.8343 79.532 59.8068C77.7505 58.7794 76.3419 57.292 75.3061 55.3448C74.2786 53.3976 73.7649 51.0402 73.7649 48.2727C73.7649 45.4969 74.2869 43.1354 75.331 41.1882C76.375 39.241 77.7919 37.7578 79.5817 36.7386C81.3714 35.7112 83.3849 35.1974 85.6222 35.1974C87.0971 35.1974 88.4643 35.4046 89.7237 35.8189C90.9915 36.2332 92.1142 36.8381 93.092 37.6335C94.0697 38.4207 94.8652 39.386 95.4783 40.5295C96.0998 41.6729 96.4975 42.9821 96.6715 44.457ZM123.622 48.2727C123.622 51.0485 123.096 53.41 122.044 55.3572C121 57.3045 119.574 58.7918 117.768 59.8192C115.97 60.8384 113.948 61.348 111.703 61.348C109.441 61.348 107.411 60.8343 105.612 59.8068C103.814 58.7794 102.393 57.292 101.349 55.3448C100.305 53.3976 99.7833 51.0402 99.7833 48.2727C99.7833 45.4969 100.305 43.1354 101.349 41.1882C102.393 39.241 103.814 37.7578 105.612 36.7386C107.411 35.7112 109.441 35.1974 111.703 35.1974C113.948 35.1974 115.97 35.7112 117.768 36.7386C119.574 37.7578 121 39.241 122.044 41.1882C123.096 43.1354 123.622 45.4969 123.622 48.2727ZM118.166 48.2727C118.166 46.4747 117.896 44.9583 117.358 43.7237C116.828 42.4891 116.078 41.5528 115.108 40.9148C114.139 40.2768 113.004 39.9577 111.703 39.9577C110.402 39.9577 109.267 40.2768 108.297 40.9148C107.328 41.5528 106.574 42.4891 106.035 43.7237C105.505 44.9583 105.24 46.4747 105.24 48.2727C105.24 50.0708 105.505 51.5871 106.035 52.8217C106.574 54.0563 107.328 54.9927 108.297 55.6307C109.267 56.2687 110.402 56.5877 111.703 56.5877C113.004 56.5877 114.139 56.2687 115.108 55.6307C116.078 54.9927 116.828 54.0563 117.358 52.8217C117.896 51.5871 118.166 50.0708 118.166 48.2727ZM136.332 61H127.309V35.5455H136.407C138.967 35.5455 141.171 36.055 143.019 37.0742C144.867 38.0851 146.288 39.5393 147.282 41.4368C148.285 43.3343 148.786 45.6046 148.786 48.2479C148.786 50.8994 148.285 53.178 147.282 55.0838C146.288 56.9896 144.858 58.4521 142.994 59.4712C141.138 60.4904 138.917 61 136.332 61ZM132.69 56.3888H136.108C137.699 56.3888 139.037 56.1071 140.123 55.5437C141.217 54.9719 142.037 54.0895 142.584 52.8963C143.139 51.6948 143.417 50.1454 143.417 48.2479C143.417 46.367 143.139 44.8299 142.584 43.6367C142.037 42.4435 141.221 41.5652 140.135 41.0018C139.05 40.4383 137.712 40.1566 136.121 40.1566H132.69V56.3888ZM152.473 61V35.5455H169.625V39.9826H157.854V46.0479H168.742V50.4851H157.854V56.5629H169.674V61H152.473ZM181.404 61V35.5455H191.446C193.369 35.5455 195.009 35.8893 196.368 36.5771C197.735 37.2565 198.775 38.2218 199.488 39.473C200.209 40.7159 200.569 42.1784 200.569 43.8604C200.569 45.5508 200.205 47.005 199.475 48.223C198.746 49.4328 197.69 50.3608 196.306 51.0071C194.931 51.6534 193.265 51.9766 191.31 51.9766H184.586V47.6513H190.44C191.467 47.6513 192.321 47.5104 193 47.2287C193.679 46.947 194.185 46.5244 194.516 45.9609C194.856 45.3975 195.026 44.6973 195.026 43.8604C195.026 43.0153 194.856 42.3027 194.516 41.7227C194.185 41.1426 193.675 40.7035 192.988 40.4052C192.308 40.0986 191.451 39.9453 190.415 39.9453H186.786V61H181.404ZM195.15 49.4162L201.477 61H195.536L189.346 49.4162H195.15ZM204.073 61V35.5455H221.225V39.9826H209.454V46.0479H220.342V50.4851H209.454V56.5629H221.274V61H204.073ZM229.802 35.5455L235.954 54.8849H236.19L242.355 35.5455H248.321L239.546 61H232.611L223.824 35.5455H229.802ZM256.467 35.5455V61H251.085V35.5455H256.467ZM260.594 61V35.5455H277.746V39.9826H265.976V46.0479H276.864V50.4851H265.976V56.5629H277.796V61H260.594ZM287.455 61L280.171 35.5455H286.05L290.264 53.2319H290.475L295.123 35.5455H300.157L304.793 53.2692H305.017L309.23 35.5455H315.109L307.826 61H302.581L297.734 44.3576H297.535L292.7 61H287.455ZM317.69 61V35.5455H334.842V39.9826H323.071V46.0479H333.959V50.4851H323.071V56.5629H334.891V61H317.69ZM338.82 61V35.5455H348.863C350.785 35.5455 352.426 35.8893 353.785 36.5771C355.152 37.2565 356.192 38.2218 356.905 39.473C357.625 40.7159 357.986 42.1784 357.986 43.8604C357.986 45.5508 357.621 47.005 356.892 48.223C356.163 49.4328 355.106 50.3608 353.723 51.0071C352.347 51.6534 350.682 51.9766 348.726 51.9766H342.002V47.6513H347.856C348.884 47.6513 349.737 47.5104 350.417 47.2287C351.096 46.947 351.601 46.5244 351.933 45.9609C352.273 45.3975 352.443 44.6973 352.443 43.8604C352.443 43.0153 352.273 42.3027 351.933 41.7227C351.601 41.1426 351.092 40.7035 350.404 40.4052C349.725 40.0986 348.867 39.9453 347.831 39.9453H344.202V61H338.82ZM352.567 49.4162L358.893 61H352.952L346.762 49.4162H352.567Z" fill="#303434"/>
</svg>
