<svg width="360" height="64" viewBox="0 0 360 64" fill="none" xmlns="http://www.w3.org/2000/svg">
<g clip-path="url(#clip0_907_554)">
<path d="M74.2126 29V3.54541H91.0663V7.98256H79.5943V14.0479H89.9476V18.4851H79.5943V29H74.2126ZM94.3862 29V3.54541H99.7679V24.5629H110.68V29H94.3862ZM113.944 29V3.54541H131.096V7.98256H119.326V14.0479H130.214V18.4851H119.326V24.5629H131.146V29H113.944ZM140.121 3.54541L145.254 12.2209H145.453L150.611 3.54541H156.689L148.921 16.2727L156.863 29H150.673L145.453 20.3121H145.254L140.034 29H133.869L141.836 16.2727L134.019 3.54541H140.121ZM159.795 29V3.54541H169.986C171.859 3.54541 173.421 3.82299 174.672 4.37816C175.923 4.93332 176.864 5.70391 177.493 6.68995C178.123 7.66769 178.438 8.79459 178.438 10.0707C178.438 11.065 178.239 11.9392 177.841 12.6932C177.444 13.4389 176.897 14.0521 176.201 14.5327C175.513 15.005 174.726 15.3406 173.839 15.5394V15.788C174.809 15.8294 175.716 16.1029 176.561 16.6083C177.415 17.1138 178.107 17.8222 178.637 18.7337C179.167 19.6368 179.432 20.714 179.432 21.9652C179.432 23.3158 179.097 24.5214 178.426 25.582C177.763 26.6344 176.781 27.4671 175.48 28.0803C174.179 28.6934 172.576 29 170.67 29H159.795ZM165.176 24.6001H169.564C171.064 24.6001 172.157 24.3143 172.845 23.7425C173.533 23.1625 173.877 22.3919 173.877 21.4308C173.877 20.7264 173.707 20.105 173.367 19.5664C173.027 19.0278 172.543 18.6052 171.913 18.2987C171.291 17.9921 170.55 17.8388 169.688 17.8388H165.176V24.6001ZM165.176 14.1971H169.166C169.903 14.1971 170.558 14.0687 171.13 13.8118C171.71 13.5466 172.166 13.1738 172.497 12.6932C172.837 12.2126 173.007 11.6367 173.007 10.9656C173.007 10.0458 172.679 9.30417 172.025 8.74073C171.378 8.17728 170.459 7.89556 169.265 7.89556H165.176V14.1971ZM182.634 29V3.54541H199.786V7.98256H188.016V14.0479H198.904V18.4851H188.016V24.5629H199.836V29H182.634ZM203.765 29V3.54541H213.808C215.73 3.54541 217.37 3.88928 218.729 4.57702C220.097 5.25647 221.136 6.22179 221.849 7.47297C222.57 8.71587 222.93 10.1784 222.93 11.8604C222.93 13.5508 222.566 15.005 221.837 16.223C221.107 17.4328 220.051 18.3608 218.667 19.0071C217.292 19.6534 215.626 19.9766 213.671 19.9766H206.947V15.6513H212.801C213.828 15.6513 214.682 15.5104 215.361 15.2287C216.041 14.947 216.546 14.5244 216.877 13.9609C217.217 13.3975 217.387 12.6973 217.387 11.8604C217.387 11.0153 217.217 10.3027 216.877 9.72262C216.546 9.1426 216.036 8.70344 215.349 8.40514C214.669 8.09856 213.812 7.94527 212.776 7.94527H209.147V29H203.765ZM217.511 17.4162L223.838 29H217.897L211.707 17.4162H217.511ZM226.434 29V3.54541H236.476C238.399 3.54541 240.039 3.88928 241.398 4.57702C242.765 5.25647 243.805 6.22179 244.518 7.47297C245.239 8.71587 245.599 10.1784 245.599 11.8604C245.599 13.5508 245.235 15.005 244.505 16.223C243.776 17.4328 242.72 18.3608 241.336 19.0071C239.961 19.6534 238.295 19.9766 236.34 19.9766H229.615V15.6513H235.47C236.497 15.6513 237.35 15.5104 238.03 15.2287C238.709 14.947 239.215 14.5244 239.546 13.9609C239.886 13.3975 240.056 12.6973 240.056 11.8604C240.056 11.0153 239.886 10.3027 239.546 9.72262C239.215 9.1426 238.705 8.70344 238.017 8.40514C237.338 8.09856 236.48 7.94527 235.445 7.94527H231.815V29H226.434ZM240.18 17.4162L246.506 29H240.565L234.376 17.4162H240.18ZM246.551 3.54541H252.579L258.384 14.5078H258.632L264.437 3.54541H270.465L261.18 20.0014V29H255.836V20.0014L246.551 3.54541ZM96.6717 44.457H91.2278C91.1284 43.7527 90.9254 43.1271 90.6188 42.5803C90.3122 42.0251 89.9186 41.5528 89.4381 41.1634C88.9575 40.7739 88.4023 40.4756 87.7726 40.2685C87.1511 40.0613 86.4758 39.9577 85.7466 39.9577C84.4292 39.9577 83.2816 40.285 82.3038 40.9396C81.3261 41.5859 80.5679 42.5305 80.0293 43.7734C79.4907 45.008 79.2214 46.5078 79.2214 48.2727C79.2214 50.0874 79.4907 51.612 80.0293 52.8466C80.5762 54.0812 81.3385 55.0134 82.3163 55.6431C83.294 56.2728 84.425 56.5877 85.7094 56.5877C86.4302 56.5877 87.0973 56.4924 87.7104 56.3018C88.3319 56.1113 88.8829 55.8337 89.3635 55.4691C89.8441 55.0962 90.2418 54.6446 90.5567 54.1143C90.8798 53.584 91.1035 52.9792 91.2278 52.2997L96.6717 52.3246C96.5309 53.4929 96.1787 54.6198 95.6153 55.7053C95.0601 56.7824 94.3102 57.7478 93.3656 58.6012C92.4293 59.4464 91.3107 60.1175 90.0098 60.6147C88.7172 61.1036 87.2547 61.348 85.6224 61.348C83.352 61.348 81.3219 60.8343 79.5322 59.8068C77.7507 58.7794 76.3421 57.292 75.3063 55.3448C74.2788 53.3976 73.7651 51.0402 73.7651 48.2727C73.7651 45.4969 74.2871 43.1354 75.3312 41.1882C76.3752 39.241 77.7921 37.7578 79.5819 36.7386C81.3716 35.7112 83.3851 35.1974 85.6224 35.1974C87.0973 35.1974 88.4645 35.4046 89.7239 35.8189C90.9917 36.2332 92.1144 36.8381 93.0922 37.6335C94.0699 38.4207 94.8654 39.386 95.4785 40.5295C96.1 41.6729 96.4977 42.9821 96.6717 44.457ZM123.622 48.2727C123.622 51.0485 123.096 53.41 122.044 55.3572C121 57.3045 119.574 58.7918 117.768 59.8192C115.97 60.8384 113.948 61.348 111.703 61.348C109.441 61.348 107.411 60.8343 105.612 59.8068C103.814 58.7794 102.393 57.292 101.349 55.3448C100.305 53.3976 99.7835 51.0402 99.7835 48.2727C99.7835 45.4969 100.305 43.1354 101.349 41.1882C102.393 39.241 103.814 37.7578 105.612 36.7386C107.411 35.7112 109.441 35.1974 111.703 35.1974C113.948 35.1974 115.97 35.7112 117.768 36.7386C119.574 37.7578 121 39.241 122.044 41.1882C123.096 43.1354 123.622 45.4969 123.622 48.2727ZM118.166 48.2727C118.166 46.4747 117.896 44.9583 117.358 43.7237C116.828 42.4891 116.078 41.5528 115.108 40.9148C114.139 40.2768 113.004 39.9577 111.703 39.9577C110.402 39.9577 109.267 40.2768 108.297 40.9148C107.328 41.5528 106.574 42.4891 106.035 43.7237C105.505 44.9583 105.24 46.4747 105.24 48.2727C105.24 50.0708 105.505 51.5871 106.035 52.8217C106.574 54.0563 107.328 54.9927 108.297 55.6307C109.267 56.2687 110.402 56.5877 111.703 56.5877C113.004 56.5877 114.139 56.2687 115.108 55.6307C116.078 54.9927 116.828 54.0563 117.358 52.8217C117.896 51.5871 118.166 50.0708 118.166 48.2727ZM136.332 61H127.309V35.5455H136.407C138.967 35.5455 141.171 36.055 143.019 37.0742C144.867 38.0851 146.288 39.5393 147.282 41.4368C148.285 43.3343 148.786 45.6046 148.786 48.2479C148.786 50.8994 148.285 53.178 147.282 55.0838C146.288 56.9896 144.858 58.4521 142.994 59.4712C141.138 60.4904 138.917 61 136.332 61ZM132.69 56.3888H136.108C137.699 56.3888 139.037 56.1071 140.123 55.5437C141.217 54.9719 142.037 54.0895 142.584 52.8963C143.139 51.6948 143.417 50.1454 143.417 48.2479C143.417 46.367 143.139 44.8299 142.584 43.6367C142.037 42.4435 141.221 41.5652 140.135 41.0018C139.05 40.4383 137.712 40.1566 136.121 40.1566H132.69V56.3888ZM152.473 61V35.5455H169.625V39.9826H157.854V46.0479H168.742V50.4851H157.854V56.5629H169.674V61H152.473ZM181.404 61V35.5455H191.446C193.369 35.5455 195.009 35.8893 196.368 36.5771C197.735 37.2565 198.775 38.2218 199.488 39.473C200.209 40.7159 200.569 42.1784 200.569 43.8604C200.569 45.5508 200.205 47.005 199.475 48.223C198.746 49.4328 197.69 50.3608 196.306 51.0071C194.931 51.6534 193.265 51.9766 191.31 51.9766H184.586V47.6513H190.44C191.467 47.6513 192.321 47.5104 193 47.2287C193.679 46.947 194.185 46.5244 194.516 45.9609C194.856 45.3975 195.026 44.6973 195.026 43.8604C195.026 43.0153 194.856 42.3027 194.516 41.7227C194.185 41.1426 193.675 40.7035 192.988 40.4052C192.308 40.0986 191.451 39.9453 190.415 39.9453H186.786V61H181.404ZM195.15 49.4162L201.477 61H195.536L189.346 49.4162H195.15ZM204.073 61V35.5455H221.225V39.9826H209.454V46.0479H220.342V50.4851H209.454V56.5629H221.274V61H204.073ZM229.802 35.5455L235.954 54.8849H236.19L242.355 35.5455H248.321L239.546 61H232.611L223.824 35.5455H229.802ZM256.467 35.5455V61H251.085V35.5455H256.467ZM260.594 61V35.5455H277.746V39.9826H265.976V46.0479H276.864V50.4851H265.976V56.5629H277.796V61H260.594ZM287.455 61L280.171 35.5455H286.05L290.264 53.2319H290.475L295.123 35.5455H300.157L304.793 53.2692H305.017L309.23 35.5455H315.109L307.826 61H302.581L297.734 44.3576H297.535L292.7 61H287.455ZM317.69 61V35.5455H334.842V39.9826H323.071V46.0479H333.959V50.4851H323.071V56.5629H334.891V61H317.69ZM338.82 61V35.5455H348.863C350.785 35.5455 352.426 35.8893 353.785 36.5771C355.152 37.2565 356.192 38.2218 356.905 39.473C357.625 40.7159 357.986 42.1784 357.986 43.8604C357.986 45.5508 357.621 47.005 356.892 48.223C356.163 49.4328 355.106 50.3608 353.723 51.0071C352.347 51.6534 350.682 51.9766 348.726 51.9766H342.002V47.6513H347.856C348.884 47.6513 349.737 47.5104 350.417 47.2287C351.096 46.947 351.601 46.5244 351.933 45.9609C352.273 45.3975 352.443 44.6973 352.443 43.8604C352.443 43.0153 352.273 42.3027 351.933 41.7227C351.601 41.1426 351.092 40.7035 350.404 40.4052C349.725 40.0986 348.867 39.9453 347.831 39.9453H344.202V61H338.82ZM352.567 49.4162L358.893 61H352.952L346.762 49.4162H352.567Z" fill="#303434"/>
<path d="M37.6249 2.11829C38.7336 3.14569 39.6334 4.67969 39.7261 6.21409C39.7348 6.69684 39.7349 7.1792 39.7323 7.66198C39.7322 7.84753 39.7323 8.03308 39.7324 8.21864C39.7325 8.72035 39.731 9.22205 39.7292 9.72375C39.7276 10.2488 39.7274 10.7739 39.7271 11.299C39.7263 12.2923 39.7242 13.2857 39.7216 14.2791C39.7187 15.4104 39.7173 16.5418 39.716 17.6731C39.7133 19.9995 39.7088 22.3258 39.703 24.6522C39.1391 24.6743 38.5751 24.6955 38.0111 24.7167C37.8541 24.7228 37.6971 24.729 37.5353 24.7353C37.0548 24.7531 36.5743 24.768 36.0936 24.7811C35.928 24.7857 35.7623 24.7904 35.5916 24.7951C35.3522 24.799 35.3522 24.799 35.1079 24.8029C34.8928 24.807 34.8928 24.807 34.6733 24.8111C34.0538 24.7628 33.6758 24.4928 33.2094 24.1044C33.1192 24.0351 33.0289 23.9659 32.936 23.8946C32.7482 23.7501 32.5618 23.6039 32.3767 23.4559C32.0108 23.1653 31.6357 22.888 31.2601 22.61C30.9311 22.366 30.6046 22.1187 30.2782 21.8713C29.8545 21.5508 29.4291 21.2324 29.0038 20.9139C29.0463 20.7969 29.0889 20.68 29.1327 20.5594C29.4233 19.5172 29.3683 18.4568 28.9157 17.4742C28.3068 16.4028 27.4712 15.7709 26.2872 15.4208C25.2972 15.222 24.2888 15.4167 23.4256 15.9329C22.5211 16.5852 22.0026 17.3068 21.6964 18.3922C21.5633 19.4838 21.6616 20.52 22.3248 21.4296C22.402 21.5146 22.4791 21.5997 22.5585 21.6874C22.5585 21.7724 22.5585 21.8575 22.5585 21.9452C22.6436 21.9452 22.7286 21.9452 22.8163 21.9452C22.8163 22.0303 22.8163 22.1153 22.8163 22.203C22.9439 22.2508 22.9439 22.2508 23.0741 22.2997C23.4608 22.4608 23.4608 22.4608 23.6698 22.5927C24.5006 23.0965 25.3493 23.0837 26.2968 22.9764C26.9879 22.791 27.5408 22.5168 28.1015 22.0741C28.4445 22.2381 28.7553 22.4165 29.0652 22.6365C29.1933 22.7271 29.1933 22.7271 29.3239 22.8196C29.415 22.8846 29.5061 22.9497 29.6 23.0167C29.6952 23.0843 29.7904 23.1518 29.8884 23.2214C30.7114 23.8066 31.5302 24.3977 32.3469 24.9918C32.4379 25.0578 32.5289 25.1239 32.6227 25.192C32.702 25.2497 32.7812 25.3073 32.8628 25.3667C32.9506 25.4287 33.0384 25.4907 33.1288 25.5546C33.2391 25.6461 33.3495 25.7376 33.4631 25.8319C34.0692 26.1608 34.5684 26.1352 35.2467 26.1205C35.4382 26.1194 35.4382 26.1194 35.6335 26.1183C36.0394 26.1154 36.4451 26.109 36.851 26.1024C37.1269 26.0998 37.4029 26.0975 37.6788 26.0954C38.3536 26.0901 39.0282 26.08 39.703 26.0702C39.703 27.7717 39.703 29.4733 39.703 31.2264C35.0237 31.2264 30.3444 31.2264 25.5233 31.2264C25.3532 30.801 25.183 30.3756 25.0077 29.9374C24.3668 28.9272 23.5232 28.4706 22.3812 28.2132C21.2364 28.0395 20.3344 28.3113 19.3696 28.9368C18.5751 29.5557 18.1105 30.3714 17.9179 31.3553C17.7839 32.4831 17.9967 33.4019 18.6233 34.3494C19.2834 35.1826 20.1506 35.6951 21.205 35.859C22.3056 35.9229 23.3554 35.6365 24.2343 34.9647C24.9101 34.277 25.1759 33.6998 25.5233 32.7733C30.2026 32.7733 34.8819 32.7733 39.703 32.7733C39.703 34.4749 39.703 36.1764 39.703 37.9296C39.3097 37.9116 38.9164 37.8937 38.5111 37.8752C38.1225 37.863 37.7338 37.8537 37.345 37.8446C37.0786 37.8369 36.8122 37.8264 36.5459 37.8129C34.5848 37.7158 33.4225 37.9892 31.9306 39.2877C31.6428 39.5349 31.3372 39.7509 31.0255 39.9669C30.843 40.0987 30.6605 40.2306 30.4782 40.3627C30.34 40.4624 30.34 40.4624 30.199 40.5641C30.0617 40.6633 30.0617 40.6633 29.9218 40.7645C29.8342 40.8277 29.7467 40.8909 29.6565 40.956C29.4707 41.093 29.2871 41.233 29.1051 41.3751C29.0135 41.4464 28.9219 41.5178 28.8276 41.5913C28.7455 41.6565 28.6634 41.7217 28.5789 41.7889C28.3593 41.9256 28.3593 41.9256 28.0289 41.8773C27.9253 41.8082 27.8216 41.7391 27.7147 41.6678C26.5969 41.0099 25.5541 40.7978 24.2564 41.1114C23.0807 41.546 22.4372 42.1689 21.9069 43.2963C21.4642 44.4048 21.6086 45.4741 22.0429 46.5663C22.5711 47.5316 23.4065 48.171 24.4357 48.5321C25.5189 48.7708 26.5911 48.5982 27.5531 48.0578C28.4458 47.4358 29.0016 46.5891 29.2616 45.535C29.3577 44.6627 29.2276 43.9254 29.0038 43.0858C30.186 42.1718 31.3698 41.2627 32.5966 40.409C32.9957 40.1317 32.9957 40.1317 33.3348 39.841C33.9334 39.3543 34.3319 39.1711 35.1117 39.1914C35.2708 39.1948 35.4299 39.1981 35.5938 39.2016C35.7587 39.2072 35.9237 39.2128 36.0936 39.2186C36.2536 39.2231 36.4136 39.2275 36.5784 39.2321C37.0561 39.2467 37.5336 39.2644 38.0111 39.2831C38.1751 39.2892 38.3391 39.2954 38.5081 39.3017C38.9064 39.3167 39.3047 39.3319 39.703 39.3475C39.7151 41.7556 39.7242 44.1637 39.7297 46.5719C39.7324 47.6901 39.736 48.8084 39.7419 49.9267C39.7471 50.902 39.7504 51.8773 39.7515 52.8526C39.7522 53.3685 39.7538 53.8843 39.7575 54.4002C39.7611 54.887 39.7621 55.3738 39.7613 55.8606C39.7616 56.1218 39.7643 56.383 39.7672 56.6442C39.7589 58.511 39.2247 60.1595 37.9467 61.5436C36.6757 62.735 35.1749 63.3102 33.443 63.3724C31.692 63.3139 30.1806 62.6553 28.9172 61.4575C28.0936 60.5662 27.5966 59.605 27.328 58.4256C27.3938 58.3989 27.4596 58.3721 27.5274 58.3446C28.6721 57.8595 29.9431 57.2753 30.8085 56.3631C30.9678 55.8355 30.9678 55.8355 30.8085 55.3319C30.0897 55.2517 29.7287 55.497 29.1891 55.9281C26.9497 57.6102 24.3821 58.2135 21.6191 57.8738C19.6431 57.5651 17.8444 56.6801 16.371 55.3319C16.2831 55.2558 16.1952 55.1797 16.1046 55.1013C14.3101 53.4508 13.2304 50.9625 13.1116 48.5487C13.0643 46.8683 13.3022 45.3385 13.9641 43.7822C14.066 43.4177 14.0221 43.1889 13.9218 42.828C13.4923 42.6951 13.0729 42.58 12.6302 42.4987C9.82642 41.9796 7.40025 40.4746 5.67177 38.1874C4.04191 35.6709 3.33691 32.7785 3.9693 29.812C4.6824 26.9508 6.24387 24.4258 8.78969 22.8556C10.3202 21.9654 12.0386 21.4804 13.7929 21.3006C13.819 20.6416 13.7387 20.1165 13.5431 19.4879C12.7425 16.8909 13.0767 14.1533 14.3047 11.7484C14.9032 10.6455 15.6195 9.68311 16.6288 8.92564C16.7876 8.79902 16.7876 8.79902 16.9496 8.66985C19.3226 6.84282 22.1046 6.29396 25.0435 6.63989C26.803 6.943 28.4271 7.83485 29.7606 8.9901C30.0558 9.19807 30.21 9.24791 30.5668 9.24791C30.6891 9.22664 30.8114 9.20537 30.9374 9.18346C31.0151 8.81044 31.0433 8.63884 30.9374 8.28111C30.027 7.24971 28.5527 6.55807 27.328 5.9608C27.3886 4.38519 28.2843 3.15437 29.3905 2.09361C31.7026 -0.0349505 35.2496 0.310209 37.6249 2.11829Z" fill="#710FD8"/>
<path d="M41.1211 20.3984C44.269 20.3984 47.4169 20.3984 50.6602 20.3984C52.1091 21.8474 52.1091 21.8474 52.1169 22.7466C52.119 22.9144 52.121 23.0823 52.1231 23.2553C52.124 23.4418 52.1249 23.6282 52.1258 23.8147C52.1276 24.0108 52.1296 24.2069 52.1316 24.403C52.1377 25.0475 52.141 25.6921 52.1441 26.3367C52.1453 26.5588 52.1465 26.7809 52.1478 27.003C52.1527 27.9274 52.157 28.8517 52.1594 29.7761C52.1629 31.0994 52.1703 32.4225 52.1834 33.7457C52.1922 34.6768 52.1967 35.6079 52.1978 36.539C52.1985 37.0948 52.2012 37.6504 52.2087 38.206C52.2156 38.7295 52.2169 39.2528 52.2141 39.7763C52.214 39.9676 52.2158 40.159 52.2199 40.3503C52.2396 41.336 52.19 42.0392 51.5057 42.8072C51.3138 42.9904 51.1185 43.1702 50.918 43.3438C50.8329 43.4288 50.7478 43.5139 50.6602 43.6016C47.5123 43.6016 44.3644 43.6016 41.1211 43.6016C41.1211 35.9445 41.1211 28.2875 41.1211 20.3984Z" fill="#25D838"/>
<path d="M41.1211 16.1446C42.5689 16.1007 44.0163 16.0653 45.4647 16.0444C46.1374 16.0344 46.8097 16.0208 47.4821 15.9987C48.1324 15.9776 48.7823 15.9661 49.4329 15.9611C49.6798 15.9576 49.9266 15.9507 50.1732 15.9402C52.1998 15.8573 52.1998 15.8573 53.0131 16.5678C53.4127 16.9697 53.7656 17.3995 54.1028 17.8546C54.3118 18.1348 54.5417 18.392 54.7771 18.6502C54.8373 18.7229 54.8976 18.7956 54.9596 18.8705C55.164 19.113 55.164 19.1129 55.4034 19.3002C55.9232 19.766 56.1254 20.1711 56.1815 20.8726C56.2027 21.3848 56.2034 21.8959 56.2012 22.4085C56.2035 22.6396 56.2061 22.8707 56.2091 23.1018C56.216 23.7278 56.2171 24.3536 56.2167 24.9796C56.2167 25.5033 56.2194 26.027 56.222 26.5507C56.228 27.7872 56.2291 29.0237 56.2273 30.2602C56.2255 31.5328 56.2327 32.8051 56.2443 34.0776C56.254 35.1726 56.2575 36.2675 56.2565 37.3626C56.2559 38.0155 56.2576 38.6683 56.2654 39.3212C56.2724 39.9359 56.2718 40.5503 56.2657 41.1651C56.2647 41.3895 56.2663 41.6139 56.2708 41.8383C56.2908 42.9155 56.2693 43.7435 55.5379 44.5842C55.2754 44.8556 55.0029 45.1112 54.7195 45.3606C54.4263 45.6271 54.1682 45.9227 53.907 46.22C53.8237 46.3126 53.7405 46.4052 53.6547 46.5005C53.3693 46.7964 53.3693 46.7964 53.2321 47.078C52.9709 47.4935 52.717 47.7954 52.2221 47.9134C51.4497 48.0055 50.6712 47.9736 49.8953 47.9562C49.6422 47.9543 49.3892 47.9529 49.1362 47.9518C48.4721 47.9479 47.8083 47.9378 47.1444 47.9264C46.4661 47.9158 45.7877 47.9111 45.1094 47.9059C43.7798 47.8949 42.4505 47.8767 41.1211 47.8555C41.1211 46.9197 41.1211 45.9838 41.1211 45.0196C41.4223 45.0191 41.7235 45.0185 42.0339 45.018C43.0295 45.0158 44.025 45.01 45.0206 45.0026C45.6242 44.9982 46.2277 44.9949 46.8313 44.9944C47.4139 44.9938 47.9964 44.9902 48.579 44.9844C48.8012 44.9827 49.0234 44.9821 49.2455 44.9827C49.557 44.9833 49.8682 44.98 50.1796 44.9757C50.2713 44.9768 50.363 44.9779 50.4575 44.9791C50.9562 44.9676 51.1573 44.9063 51.5434 44.5797C51.6348 44.4697 51.7262 44.3596 51.8203 44.2462C51.9095 44.1584 51.9988 44.0707 52.0907 43.9803C52.1743 43.8979 52.2579 43.8155 52.344 43.7305C52.4279 43.6481 52.5118 43.5657 52.5983 43.4808C53.1688 42.8819 53.431 42.5538 53.4405 41.7024C53.4421 41.6168 53.4437 41.5312 53.4454 41.443C53.4502 41.1571 53.4512 40.8712 53.4523 40.5852C53.4549 40.3798 53.4577 40.1743 53.4607 39.9689C53.468 39.4111 53.4719 38.8534 53.4747 38.2956C53.4765 37.9464 53.4788 37.5973 53.4814 37.2482C53.4891 36.1541 53.4947 35.0601 53.4972 33.966C53.5002 32.7063 53.5104 31.4471 53.5268 30.1876C53.5391 29.212 53.5449 28.2365 53.5458 27.2609C53.5465 26.6791 53.5499 26.0977 53.5601 25.516C53.7332 22.8525 53.7332 22.8525 52.7801 20.4864C52.4397 20.1527 52.0869 19.8921 51.6914 19.6251C51.6089 19.5283 51.5263 19.4316 51.4413 19.3319C51.0543 19.0077 50.6767 19.0357 50.1943 19.0391C50.0961 19.0377 49.998 19.0364 49.8968 19.035C49.5732 19.0312 49.2496 19.0311 48.926 19.0309C48.7013 19.029 48.4766 19.0268 48.2519 19.0244C47.6611 19.0188 47.0703 19.0162 46.4794 19.0143C45.8763 19.0118 45.2732 19.0064 44.67 19.0012C43.4871 18.9915 42.3041 18.9853 41.1211 18.9805C41.1211 18.0447 41.1211 17.1088 41.1211 16.1446Z" fill="#25D838"/>
<path d="M26.7318 42.5139C27.3696 42.8805 27.743 43.4286 27.9725 44.1171C28.0685 45.0028 27.9773 45.7021 27.4569 46.4374C26.9126 46.9969 26.2421 47.3075 25.4644 47.3619C24.6175 47.3255 24.043 47.0531 23.4608 46.4374C22.9216 45.7261 22.829 44.9895 22.9452 44.1171C23.1811 43.3651 23.741 42.8967 24.3632 42.4414C25.1254 42.1873 25.9915 42.1839 26.7318 42.5139Z" fill="#710FD8"/>
<path d="M22.8767 29.6654C23.6314 30.0878 23.9639 30.673 24.2343 31.4842C24.3063 32.3196 24.1958 32.9716 23.7187 33.6756C23.1339 34.2894 22.5533 34.5006 21.7126 34.5376C20.9472 34.4992 20.4115 34.3342 19.8515 33.8045C19.2315 33.0097 19.1075 32.3395 19.2069 31.3553C19.4075 30.5844 19.8602 30.0957 20.5353 29.6891C21.2921 29.3874 22.1111 29.3892 22.8767 29.6654Z" fill="#710FD8"/>
<path d="M26.7963 17.0149C27.3834 17.4376 27.7844 17.8882 27.9726 18.594C28.0793 19.4167 28.0073 20.0058 27.5214 20.6877C27.0674 21.2198 26.6073 21.6401 25.8844 21.7185C24.9937 21.745 24.3167 21.6078 23.6497 20.9883C23.102 20.3704 22.886 19.8229 22.914 18.9953C22.9966 18.275 23.219 17.7487 23.759 17.2566C24.6766 16.555 25.7636 16.4685 26.7963 17.0149Z" fill="#710FD8"/>
<path d="M44.0859 49.4023C44.6389 49.4023 45.1919 49.4023 45.7617 49.4023C45.7712 50.0562 45.7783 50.7099 45.7829 51.3638C45.7849 51.5862 45.7875 51.8087 45.7908 52.0311C45.7955 52.3508 45.7977 52.6704 45.7994 52.9901C45.8014 53.0896 45.8034 53.1891 45.8055 53.2916C45.8057 53.9758 45.8057 53.9758 45.5942 54.2986C45.2158 54.5249 44.899 54.483 44.4726 54.4297C44.1191 54.1128 44.0863 53.9182 44.042 53.4414C44.0421 53.2532 44.0442 53.0649 44.0481 52.8768C44.0487 52.7774 44.0492 52.6779 44.0498 52.5755C44.0519 52.259 44.0568 51.9425 44.0617 51.626C44.0637 51.411 44.0654 51.196 44.067 50.9809C44.0713 50.4547 44.0779 49.9285 44.0859 49.4023Z" fill="#25D838"/>
<path d="M44.9237 9.50586C45.3749 9.57031 45.3749 9.57031 45.5941 9.76732C45.829 10.2142 45.8096 10.6311 45.7994 11.1232C45.7988 11.2226 45.7983 11.3221 45.7977 11.4245C45.7955 11.741 45.7907 12.0575 45.7858 12.374C45.7838 12.589 45.7821 12.804 45.7805 13.0191C45.7762 13.5453 45.7695 14.0715 45.7616 14.5977C45.2086 14.5977 44.6556 14.5977 44.0858 14.5977C44.0762 13.9646 44.0692 13.3315 44.0646 12.6984C44.0626 12.4831 44.06 12.2677 44.0566 12.0525C44.0519 11.7427 44.0497 11.433 44.048 11.1232C44.046 11.0272 44.044 10.9312 44.042 10.8322C44.0419 10.4247 44.062 10.1311 44.2533 9.76732C44.4725 9.57031 44.4725 9.57031 44.9237 9.50586Z" fill="#25D838"/>
<path d="M50.9179 9.57054C51.1336 9.7001 51.1336 9.7001 51.3046 9.95725C51.3383 10.3182 51.3496 10.6498 51.3424 11.0102C51.3418 11.1126 51.3413 11.2151 51.3407 11.3206C51.3385 11.6477 51.3337 11.9747 51.3288 12.3017C51.3268 12.5235 51.3251 12.7454 51.3235 12.9672C51.3192 13.5108 51.3125 14.0543 51.3046 14.5979C50.7516 14.5979 50.1986 14.5979 49.6288 14.5979C49.6224 14.0039 49.6178 13.4099 49.6147 12.8158C49.6134 12.6139 49.6116 12.412 49.6094 12.2101C49.6062 11.9192 49.6048 11.6283 49.6036 11.3375C49.6023 11.2477 49.601 11.158 49.5996 11.0656C49.5995 10.5544 49.6439 10.1533 49.8866 9.69944C50.2474 9.51906 50.5189 9.53797 50.9179 9.57054Z" fill="#25D838"/>
<path d="M49.629 49.4023C50.182 49.4023 50.735 49.4023 51.3047 49.4023C51.3143 50.0562 51.3213 50.7099 51.326 51.3638C51.3279 51.5862 51.3306 51.8087 51.3339 52.0311C51.3386 52.3508 51.3408 52.6704 51.3425 52.9901C51.3445 53.0896 51.3465 53.1891 51.3486 53.2916C51.3488 53.9772 51.3488 53.9772 51.1332 54.2991C50.7938 54.5051 50.5314 54.478 50.1446 54.4297C49.8147 54.1908 49.7606 54.051 49.629 53.6562C49.618 53.3322 49.614 53.0119 49.6164 52.6879C49.6166 52.5941 49.6167 52.5002 49.6169 52.4035C49.6176 52.104 49.6193 51.8046 49.6209 51.5051C49.6216 51.3019 49.6221 51.0988 49.6227 50.8956C49.6241 50.3978 49.6263 49.9001 49.629 49.4023Z" fill="#25D838"/>
<path d="M57.4922 40.3789C58.0702 40.3693 58.6482 40.3623 59.2263 40.3576C59.4228 40.3557 59.6194 40.353 59.8159 40.3497C60.0988 40.345 60.3816 40.3428 60.6645 40.3411C60.8346 40.3391 61.0047 40.337 61.18 40.335C61.6378 40.3809 61.8231 40.43 62.1328 40.7656C62.1973 41.2168 62.1973 41.2168 62.1328 41.6679C61.8231 42.0035 61.6378 42.0526 61.18 42.0985C61.0099 42.0965 60.8398 42.0945 60.6645 42.0924C60.5737 42.0919 60.4828 42.0913 60.3893 42.0908C60.1003 42.0886 59.8114 42.0837 59.5225 42.0788C59.3261 42.0769 59.1297 42.0751 58.9333 42.0735C58.4529 42.0693 57.9726 42.0626 57.4922 42.0546C57.4922 41.5016 57.4922 40.9486 57.4922 40.3789Z" fill="#25D838"/>
<path d="M57.4922 21.9453C58.0702 21.9357 58.6482 21.9287 59.2263 21.924C59.4228 21.9221 59.6194 21.9194 59.8159 21.9161C60.0988 21.9114 60.3816 21.9092 60.6645 21.9075C60.8346 21.9055 61.0047 21.9035 61.18 21.9014C61.6378 21.9473 61.8231 21.9964 62.1328 22.332C62.1973 22.7832 62.1973 22.7832 62.1328 23.2343C61.8231 23.5699 61.6378 23.619 61.18 23.665C61.0099 23.6629 60.8398 23.6609 60.6645 23.6588C60.5737 23.6583 60.4828 23.6577 60.3893 23.6572C60.1003 23.655 59.8114 23.6501 59.5225 23.6452C59.3261 23.6433 59.1297 23.6415 58.9333 23.6399C58.4529 23.6357 57.9726 23.629 57.4922 23.6211C57.4922 23.068 57.4922 22.515 57.4922 21.9453Z" fill="#25D838"/>
<path d="M57.4922 34.1914C58.0518 34.185 58.6115 34.1803 59.1712 34.1772C59.3615 34.1759 59.5518 34.1742 59.7421 34.1719C60.016 34.1688 60.2899 34.1673 60.5638 34.1662C60.7285 34.1649 60.8932 34.1635 61.0629 34.1621C61.4614 34.1895 61.6787 34.225 62.0039 34.4492C62.1843 34.81 62.1654 35.0815 62.1328 35.4804C61.998 35.6961 61.998 35.6961 61.7461 35.8672C61.4125 35.9009 61.1107 35.9122 60.7778 35.9049C60.6839 35.9044 60.59 35.9038 60.4933 35.9033C60.1938 35.9011 59.8944 35.8963 59.595 35.8913C59.3918 35.8894 59.1886 35.8876 58.9854 35.886C58.4876 35.8818 57.9899 35.8751 57.4922 35.8672C57.4922 35.3142 57.4922 34.7611 57.4922 34.1914Z" fill="#25D838"/>
<path d="M57.4922 28.1327C58.0909 28.1231 58.6896 28.1161 59.2884 28.1114C59.4921 28.1095 59.6958 28.1069 59.8995 28.1035C60.1922 28.0988 60.485 28.0966 60.7778 28.0949C60.9144 28.0919 60.9144 28.0919 61.0537 28.0889C61.4274 28.0887 61.6832 28.0897 61.997 28.3042C62.2105 28.6424 62.1815 28.9036 62.1328 29.2928C61.9336 29.5554 61.782 29.6616 61.4883 29.8085C61.1887 29.8195 60.8888 29.8223 60.589 29.8211C60.5006 29.8209 60.4123 29.8207 60.3213 29.8205C60.0389 29.8198 59.7565 29.8182 59.4741 29.8165C59.2828 29.8159 59.0914 29.8153 58.9001 29.8148C58.4308 29.8133 57.9615 29.8111 57.4922 29.8085C57.4922 29.2555 57.4922 28.7025 57.4922 28.1327Z" fill="#25D838"/>
</g>
<defs>
<clipPath id="clip0_907_554">
<rect width="360" height="64" fill="white"/>
</clipPath>
</defs>
</svg>
